/* XPM */
static char *_25879d18e3c43e0cf417d55e5d7de28Rdv4YFNXNkcrSyhS[] = {
/* columns rows colors chars-per-pixel */
"32 32 202 2 ",
"   c #51463B",
".  c #695A49",
"X  c #796852",
"o  c #AE240F",
"O  c #B5230F",
"+  c #B3280F",
"@  c #AE2510",
"#  c #AF2B14",
"$  c #B52512",
"%  c #B92611",
"&  c #B42B13",
"*  c #BC2A13",
"=  c #B52C19",
"-  c #AE3211",
";  c #AF381E",
":  c #B33514",
">  c #BD3017",
",  c #B2331A",
"<  c #BC341A",
"1  c #B63A19",
"2  c #B13923",
"3  c #B73924",
"4  c #C22D15",
"5  c #C42D1A",
"6  c #C73119",
"7  c #CE341E",
"8  c #CD3721",
"9  c #D53A23",
"0  c #DC3E26",
"q  c #D13720",
"w  c #AE4617",
"e  c #AC431B",
"r  c #AB4B16",
"t  c #AD5115",
"y  c #AC581D",
"u  c #BD461B",
"i  c #AC661B",
"p  c #A76D19",
"a  c #AC6C19",
"s  c #A7761A",
"d  c #AA741B",
"f  c #A9791A",
"g  c #A77E1B",
"h  c #BA4224",
"j  c #B2442C",
"k  c #BE4C2A",
"l  c #B34A28",
"z  c #AF5023",
"x  c #BC512E",
"c  c #B05F23",
"v  c #B54C32",
"b  c #BB5734",
"n  c #BE5A34",
"m  c #B5583A",
"M  c #B66E2D",
"N  c #B66229",
"B  c #AC7A21",
"V  c #B4792B",
"C  c #B86638",
"Z  c #BA7D33",
"A  c #C94729",
"S  c #DD4027",
"D  c #DF4228",
"F  c #DE4A2E",
"G  c #D3482B",
"H  c #CB4F32",
"J  c #C35F39",
"K  c #CB5636",
"L  c #DF5A39",
"P  c #E04329",
"I  c #E05B3B",
"U  c #C2643C",
"Y  c #E1633F",
"T  c #B85D41",
"R  c #88745B",
"E  c #BB6C43",
"W  c #BC6C4D",
"Q  c #BF7046",
"!  c #BD774B",
"~  c #BC7351",
"^  c #BA7C5A",
"/  c #C26647",
"(  c #C4784B",
")  c #DB794F",
"_  c #E16541",
"`  c #E26F48",
"'  c #E3734A",
"]  c #E47A4F",
"[  c #E57C51",
"{  c #D07266",
"}  c #A88B1D",
"|  c #A6901F",
" . c #AA931E",
".. c #A9981F",
"X. c #AE8420",
"o. c #AB9422",
"O. c #A69C21",
"+. c #A99C22",
"@. c #B09028",
"#. c #A9AD22",
"$. c #A8A622",
"%. c #A9B224",
"&. c #A5BF26",
"*. c #A5B123",
"=. c #B0B329",
"-. c #B4BA3D",
";. c #BABF3E",
":. c #A4C127",
">. c #AAC627",
",. c #A9C827",
"<. c #A6C72A",
"1. c #A5CD2A",
"2. c #AACC2A",
"3. c #ABC728",
"4. c #B0CC2D",
"5. c #A7D02A",
"6. c #ABD42B",
"7. c #AED82C",
"8. c #B1D52F",
"9. c #AEC432",
"0. c #AFD930",
"q. c #B2DC32",
"w. c #B5D733",
"e. c #B6E034",
"r. c #BE8B49",
"t. c #BA815E",
"y. c #BAAA47",
"u. c #BDAC4A",
"i. c #BDA54D",
"p. c #BABF41",
"a. c #BBB245",
"s. c #988265",
"d. c #A08969",
"f. c #BD8360",
"g. c #AF9571",
"h. c #BF9F76",
"j. c #CE824F",
"k. c #C18554",
"l. c #C78D5A",
"z. c #D88657",
"x. c #C4915D",
"c. c #E68759",
"v. c #E58657",
"b. c #C2B54E",
"n. c #C69A63",
"m. c #CC9E63",
"M. c #C59660",
"N. c #D59461",
"B. c #D99C65",
"V. c #D99C7A",
"C. c #D98672",
"Z. c #E69763",
"A. c #E88D71",
"S. c #CCAB60",
"D. c #D6A164",
"F. c #D7A86C",
"G. c #C3A57A",
"H. c #C4A87D",
"J. c #D7A273",
"K. c #D8A374",
"L. c #DCA578",
"P. c #DCA97B",
"I. c #D5A979",
"U. c #DDB476",
"Y. c #EBA069",
"T. c #ECAF74",
"R. c #EDB578",
"E. c #CAAC81",
"W. c #D0AE81",
"Q. c #CEB184",
"!. c #D2B385",
"~. c #DAB789",
"^. c #DDBE8C",
"/. c #D7B788",
"(. c #E7BB88",
"). c #F8BC8D",
"_. c #F3BE91",
"`. c #E1A584",
"'. c #EACA85",
"]. c #E6C787",
"[. c #F0C482",
"{. c #F2CD88",
"}. c #ECD78E",
"|. c #ECC391",
" X c #ECCA95",
".X c #E7C593",
"XX c #F1C691",
"oX c #F4CB97",
"OX c #F5CE98",
"+X c #F9CF9B",
"@X c #EFDB91",
"#X c #F6D29B",
"$X c #FBD59F",
"%X c #F3DB93",
"&X c #F4E296",
"*X c #F6EB9C",
"=X c #F4E599",
"-X c #FFDAA3",
";X c #FCD7A0",
":X c #F6F3A2",
">X c #FAFCA8",
",X c #F9F6A4",
/* pixels */
"1.6.6.6.7.6.7.q.6.6.6.6.<.,.&.,.1.,.2.1.2.6.6.7.q.6.6.1.6.6.5.6.",
"6.5.5.6.q.7.7.6.6.6.1.*.g s g g f f s } %.w.7.q.7.6.5.6.5.5.6.6.",
"5.6.6.1.7.6.7.5.>.#.O.B z b b n x h & : d $.#.>.6.6.5.6.6.5.5.1.",
"7.q.6.1.6.5.5.2. .t w C l.R.].'.].) 9 q 1 e y o.,.5.6.6.0.6.6.5.",
"e.7.5.5.5.1.:.| t , k l.].:X>X>X*XZ.F 0 7 H j.@. .,.5.6.7.q.q.6.",
"q.7.6.1.5.:.| t & < U U.:X>X>X*X[.] D D 0 ] '.N.Z $.:.6.6.7.e.7.",
"5.6.6.1.5...r + % * A c.%X*X*X[.] P P P D ] %X&XD.M +.&.1.6.6.6.",
"6.2.5.2. .t + % * 4 q I v.c.c.' P P P D S ] &X,X@XD.V | 1.6.1.6.",
"5.6.6.4.i , h < * 6 9 0 D D P D D D D D 0 _ T.=X,X@XU a >.6.5.5.",
"6.6.6.%.i v E k 6 9 0 S D D D D D D D D P D _ T.&X[.J i %.2.5.5.",
"6.5.*.d C r.r.H 6 9 S S D D D P D D D D P D D _ [ ) G u p *.1.1.",
"6.6...w m n.l.x 4 8 9 S D D I v.c.c.` F D D P 0 S F ` K r O.1.1.",
"6.,. .z E x.( k * 4 7 9 0 L Z.&X*X*X).` F 0 D P 0 I T.B.N o.<.6.",
",. .N E r.( x > * * 4 4 A Z.%X:X:X:X=XR.` 0 0 0 0 I R.@XF.M  .2.",
",.d , n E H = * * * * O < ( N.N.N.N.N.z.K 5 5 5 7 F v.{.'.n s ,.",
":.s @ & > * * * * * % = 2 j j j j j l j 3 2 2 2 3 8 G v.D.x s ,.",
">.p @ % * * > * * $ # v ^ f.t.f.f.f.f.f.f.f.f.t.T = $ 3 A , s ,.",
",.d @ & k n J < O = v ^ h.G.Q.^.^.^..X^.(.!.H.G.~ , O O O @ s ,.",
"&.s & h ( x.k.U , , ~ G.E.Q..X#X;X;X;X;X;X.X!.G.~ < $ * $ o s 2.",
">.d ; E x.n.x.t.m 2 t./. X X#X;X-X-X-X;X;X;XXXW.~ < % * & & X.6.",
"2.d h k.n.n.M.E m ~ I. X;X-X-X;X;X-X-X-X-X-X+XW./ < * + : d =.q.",
"2.o.c E Q ( E m ~ I. X;X-X;X/.Q. X-X-X#X!.E.|.L./ * O - i #.7.q.",
"1.>.+.y e e j ~ I. X;X-X-X#Xs.. Q.-X-X XR X /.L.E : - a %.5.2.6.",
"6.6.&...} V E V. X;X-X-X-X#XR   E.-X-X.X. . !.L.r.@. .$.5.6.2.6.",
"6.1.6.6.6.b.m.(.$X-X-X-X-X#Xg.R ~.).).|.s.s.].L.i.2.6.1.<.5.1.5.",
"6.1.1.6.6.9.D.(.-X-X-X-X-X-X X XoXA.A._. X.XoXL.i.2.6.6.<.5.5.6.",
"5.6.6.6.1.-.D.(.$X-X-X-X-X-X-X-X+XC.{ _.-X-XOXL.b.2.7.6.6.6.5.6.",
"6.6.5.6.6.9.u.U.XX$X-X-X-X-X-X-X;X`.V.oX-X#X(.S.a.8.q.7.7.7.6.6.",
"5.7.q.6.5.1.<.u.U.|.OXoXoXoXoXoXoX|.|.XXoX(.S.-.0.q.q.6.6.6.e.6.",
"6.q.7.6.1.1.5.9.b.K.K.K.K.K.J.J.V.J.K.K.J.S.-.<.5.0.7.5.6.6.e.e.",
"7.q.6.6.7.5.1.1.9.a.u.u.u.u.u.y.y.y.y.y.u.-.<.5.5.5.6.6.6.6.6.e.",
"6.1.1.6.6.5.6.5.1.1.0.9.5.2.4.2.2.2.,.8.w.7.5.5.6.5.5.6.5.6.6.6."
};
