/* XPM */
static char *_129b4811f53461bbc7d6bae788d37aaUvPdN6rq2TjxsfC2[] = {
/* columns rows colors chars-per-pixel */
"64 64 68 1 ",
"  c #80366B",
". c #82376C",
"X c #903D70",
"o c #923E71",
"O c #7F366B",
"+ c #8C3B6F",
"@ c #DB5B8B",
"# c #E8608F",
"$ c #E7608F",
"% c #DA5B8A",
"& c #8E3C70",
"* c #88396E",
"= c #BE4A82",
"- c #C64D85",
"; c #C74D85",
": c #BD4A82",
"> c #8A396F",
", c #87386E",
"< c #B5467F",
"1 c #BD4882",
"2 c #BC4882",
"3 c #BC4782",
"4 c #B6467F",
"5 c #B64680",
"6 c #AF447D",
"7 c #86386D",
"8 c #AE447D",
"9 c #BE4882",
"0 c #B74680",
"q c #8D3A70",
"w c #8E3A70",
"e c #81366B",
"r c #87386D",
"t c #85376D",
"y c #81376B",
"u c #8D3B6F",
"i c #8F3C70",
"p c #8D3C70",
"a c #E35F8D",
"s c #F16592",
"d c #F06592",
"f c #E25F8D",
"g c #943E72",
"h c #EB6290",
"j c #F96895",
"k c #F86795",
"l c #EA6190",
"z c #EA6290",
"x c #943D72",
"c c #E9618F",
"v c #903D71",
"b c #B1457D",
"n c #C44C84",
"m c #C54C85",
"M c #BD4A81",
"N c #C64C85",
"B c #C34B84",
"V c #B74780",
"C c #BC4981",
"Z c #89396E",
"A c #B5457F",
"S c #88386E",
"D c #BE4883",
"F c #B0447D",
"G c #8D3B70",
"H c #953E72",
"J c #B84780",
"K c white",
/* pixels */
" .XooooooooooooooX..XooooX..XooooooX..XooooooooooX..XoooooooooX.",
"O+@#$$$$$$$$$$$$#@++@#$$#@++@#$$$$#@++@#$$$$$$$$#@++@#$$$$$$$#%&",
"O*=--------------=**=---;=**=------=**=----------=**=--------;:>",
"O,<12222134431221<,,<113567,<122221<,,<1134431221<,,<12222134<8,",
"O,49111190qq091194,,4990w7 ,49111194,,4990qq091194,,49111190w,7e",
" 764444446776444467764467O 7644444467764467764444677644444467O  ",
" e7r7777,7  t7777t  tr,7 OO t77777,7  tr,7  t7777t  tr,,777t OO ",
"  yuiiiuyypiiiiiiiiiiuyypiiiiiiiiuyypiiuyypiiiiiiiiiiuyyuiiiiip.",
" Opasdsauuasddddddddsauuasddddddsa++assauuasddddddddsauuasdddsfi",
"  ghjkjl&&ljkkkkkkkkjl&&ljkkkkkkjzxxzjjl&&ljkkkkkkkkjl&&ljkkkjcv",
" 7bnmmmM**MmmmmmmmmmmM**MNmmmmmmmBVVBmmM**MmmmmmmmmmmM**MNmmmmCZ",
"O,41221<,,<1222222221<,,<24431222111121<,,<1222222221<,,<24431AS",
"O,491194,,491111111194,,50qq091111111194,,491111111194,,50qq0D4S",
" 76444467764444444444677FF776444444444467764444444444677FF77656,",
"  t7777t  t777,,77777t  77  7,,,7777777t  t777,,77777t  77  7,7e",
".piiiiiiiiiiiuyyuiiiiiiiiiipyOOyuiiiiiiiiiiiiuyyuiiiiiiiiiiiGyO ",
"ifsdddddddddsauuasddddddddsa&OOpasddddddddddsauuasdddddddddsa&O ",
"vcjkkkkkkkkkjl&&ljkkkkkkkkjl& 7Hzjkkkkkkkkkkjl&&ljkkkkkkkkkjl&O ",
"ZCmmmmmmmmmmmM**MmmmmmmmmmmM*76JBmmmmmmmmmmmmM**MmmmmmmmmmmmM*O ",
"SA12134431221<,,<1222222221<,,491222134431221<,,<12222222221<,  ",
"S49190qq091194,,491111111194,,49111190qq091194,,4911111111194,  ",
",6444677644446776444444444467764444446776444467764444444444467  ",
"e7777t  7,777t  t777,,77777t  t77777,7  t7777t  t777,,777777t O ",
".uiiiiipyyuiiiiiiiiuyyuiiiiiiiiiiiiuyypiiiiiiiiiiiiuyyuiiiiiiip.",
"ifsdddsauuasddddddsauuasddddddddddsauuasddddddddddsauuasdddddsfi",
"vcjkkkjl&&ljkkkkkkjl&&ljkkkkkkkkkkjl&&ljkkkkkkkkkkjl&&ljkkkkkjcv",
"ZCmmmmmM**MmmmmmmmNM**MNmmmmmmmmmmmM**MmmmmmmmmmmmmM**MNmmmmmmCZ",
"SA12221<,,<12213442<,,<244312222221<,,<122221344311<,,<2443121AS",
"S4911194,,491190qq05,,50qq0911111194,,49111190qq0994,,50qq09194S",
",64444467764444677FF77FF776444444446776444444677644677FF7764446,",
"e777777t  t7777t  77  77  7,77777777ee7777777t  tr,7  77  t7777e",
".uiiiiiiiiiiiiiiipyypiiiipyyuiiiiiiG..Giiiiiiiiiiuyypiiiiiiiiiu.",
"ifsdddddddddddddsauuasddsauuasddddsauuasddddddddsauuasdddddddsfi",
"vcjkkkkkkkkkkkkkjl&&ljkkjl&&ljkkkkjl&&ljkkkkkkkkjl&&ljkkkkkkkjcv",
"ZCmmmmmmmmmmmmmmmM**Mmmm-:**MmmmmmmM**MmmmmmmmmmmM**Mmmmmmmmm-M>",
"SA122222134431221<,,<113567,<122221<,,<1134431221<,,<12222134<8,",
"S491111190qq091194,,4990w7 ,49111194,,4990qq091194,,49111190w,7e",
",644444446776444467764467O 7644444467764467764444677644444467O  ",
"e7,77777,7  t7777t  tr,7 OO t77777,7  tr,7  t7777t  tr,,777t OO ",
" Oyuiiiuyypiiiiiiiiiiuyypiiiiiiiiuyypiiuyypiiiiiiiiiiuyyuiiiiip.",
" Opasdsauuasddddddddsauuasddddddsa++assauuasddddddddsauuasdddsfi",
"e7Hzjkjl&&ljkkkkkkkkjl&&ljkkkkkkjzxxzjjl&&ljkkkkkkkkjl&&ljkkkjcv",
",6JBmmmM**MmmmmmmmmmmM**MNmmmmmmmBVVBmmM**MmmmmmmmmmmM**MNmmmmCZ",
"S491221<,,<1222222221<,,<24431222111121<,,<1222222221<,,<24431AS",
"S4911194,,491111111194,,50qq091111111194,,491111111194,,50qq0D4S",
",64444467764444444444677FF776444444444467764444444444677FF77656,",
"e777777t  t777,,77777t  77  7,,,7777777t  t777,,77777t  77  7,7e",
".uiiiiiiiiiiiuyyuiiiiiiiiiipyOOyuiiiiiiiiiiiiuyyuiiiiiiiiiiiGyO ",
"ifsdddddddddsauuasddddddddsa&OOpasddddddddddsauuasdddddddddsa&O ",
"vcjkkkkkkkkkjl&&ljkkkkkkkkjl& 7Hzjkkkkkkkkkkjl&&ljkkkkkkkkkjl&O ",
"ZCmmmmmmmmmmmM**MmmmmmmmmmmM*76JBmmmmmmmmmmmmM**MmmmmmmmmmmmM*O ",
"SA12134431221<,,<1222222221<,,491222134431221<,,<12222222221<,  ",
"S49190qq091194,,491111111194,,49111190qq091194,,4911111111194,  ",
",6444677644446776444444444467764444446776444467764444444444467  ",
"e7777t  7,777t  t777,,77777t  t77777,7  t7777t  t777,,777777t O ",
".uiiiiipyyuiiiiiiiiuyyuiiiiiiiiiiiiuyypiiiiiiiiiiiiuyyuiiiiiiip.",
"ifsdddsauuasddddddsauuasddddddddddsauuasddddddddddsauuasdddddsfi",
"vcjkkkjl&&ljkkkkkkjl&&ljkkkkkkkkkkjl&&ljkkkkkkkkkkjl&&ljkkkkkjcv",
"ZCmmmmmM**MmmmmmmmNM**MNmmmmmmmmmmmM**MmmmmmmmmmmmmM**MmmmmmmmCZ",
"SA12221<,,<12213442<,,<244312222221<,,<122221344311<,,<1111221AS",
"S<111114,,411110qq04,,40qq0111111114,,41111110qq0114,,41552111<S",
"S4911194,,491194rr50,,05rr4911111194,,49111194rr4994,,50qq09194S",
",84<<<467764<<46776677667764<<<<<<467764<<<<4677644677667764<48,",
"e,SSSSS,ee,SSSS,ee,,ee,,ee,SSSSSSSS,ee,SSSSSS,ee,SS,ee,,ee,SSS,e"
};
