/* XPM */
static char *_3c88e13b9aa4d62ce2308618184f7a2s79xFrogp94yksQk[] = {
/* columns rows colors chars-per-pixel */
"64 64 65 1 ",
"  c #422445",
". c #442546",
"X c #51284D",
"o c #54294E",
"O c #53294E",
"+ c #51284C",
"@ c #412445",
"# c #4E274B",
"$ c #9A3E71",
"% c #A74178",
"& c #A64177",
"* c #4D274B",
"= c #993E71",
"- c #50284C",
"; c #4A264A",
": c #803669",
"> c #89396F",
", c #88386E",
"< c #80366A",
"1 c #4C274B",
"2 c #49264A",
"3 c #783466",
"4 c #80366B",
"5 c #7F366A",
"6 c #793467",
"7 c #492649",
"8 c #713262",
"9 c #482649",
"0 c #81366C",
"q c #7A3467",
"w c #50284D",
"e c #50284E",
"r c #432446",
"t c #723262",
"y c #793466",
"u c #412444",
"i c #4F284B",
"p c #A24074",
"a c #B0447B",
"s c #AF447B",
"d c #4E284B",
"f c #A14074",
"g c #562A50",
"h c #AA4279",
"j c #B74680",
"k c #B84680",
"l c #A94279",
"z c #4F284C",
"x c #A84278",
"c c #52294D",
"v c #743263",
"b c #86386D",
"n c #87386E",
"m c #7F3669",
"M c #4B274B",
"N c #7F366B",
"B c #7A3468",
"V c #4B264A",
"C c #723263",
"Z c #572A50",
"A c #7B3468",
"S c #432445",
"D c #442446",
"F c #482648",
"G c white",
/* pixels */
" .XoOOOOOOOOOOOOoX..XoOOoX..XoOOOOoX..XoOOOOOOOOoX..XoOOOOOOOo+.",
"@#$%&&&&&&&&&&&&%$**$%&&%$**$%&&&&%$**$%&&&&&&&&%$**$%&&&&&&&%=-",
"@;:>,,,,,,>>,,,,>:;;:>,,><;;:>,,,,>:;;:>,,>>,,,,>:;;:>,,,,,,>>:1",
"@234444445665444437734456897344444437734456654444377344444456382",
"@26044440qwwq0440677600qe9 26044440677600qwwq04406776044440qe77r",
" 7t6yyyy6t99t6yy6t99t66t9u 7t6yyyy6t99t66t99t6yy6t99t6yyyy6t9u  ",
" r97777729  977779  9729 uu 97777729  9729  977779  97227779 u@ ",
"  ri---irri+------+++irri+++-----irri++irri+------+++irri---++i.",
" @ipasapddpassssssssapddpassssssap##paapddpassssssssapddpasssaf+",
"  ghjjklzzlkjjjjjjjjklzzlkjjjjjjjlggljklzzlkjjjjjjjjklzzlkjjjkxc",
" 9vbnn,m;;m,nnnnnnnn,m;;m,,,nnnnnbqqbn,m;;m,nnnnnnnn,m;;m,,,n,mM",
"@264444377344444444443773N6654444444444377344444444443773N66543;",
"@260440677604444444406776Bwwq0444444440677604444444406776Bwwq0yV",
" 7t6yy6t99t6yyyyyyyy6t99CC99t6yyyyyyyy6t99t6yyyyyyyy6t99CC99t6t2",
"  977779  977722777779  99  9;2277777779  977722777779  99  927r",
".i+-----++---irri-----++--+ir@@ri-------++---irri-----++--++ir@ ",
"+fasssssssssapddpassssssssapi@uipassssssssssapddpasssssssssapi@ ",
"cxkjjjjjjjjjklzzlkjjjjjjjjkl- 9Zljjjjjjjjjjjklzzlkjjjjjjjjjkl-@ ",
"Mm,nnn,,nnnn,m;;m,nnnnnnnn,m;9tAbnnnnn,,nnnn,m;;m,nnnnnnnnn,m;@ ",
";3444566544443773444444444437760444445665444437734444444444432  ",
"Vy040qwwq0440677604444444406776044440qwwq04406776044444444406;  ",
"2t6y6t99t6yy6t99t6yyyyyyyy6t99t6yyyy6t99t6yy6t99t6yyyyyyyyy6t7  ",
"r97779  927779  977722777779  97777729  977779  9777227777779 @ ",
".i----+irri---++---irri-----++-----irri+------++---irri------+i.",
"+fasssapddpassssssapddpassssssssssapddpassssssssssapddpasssssaf+",
"cxkjjjklzzlkjjjjjjklzzlkjjjjjjjjjjklzzlkjjjjjjjjjjklzzlkjjjjjkxc",
"Mm,nnn,m;;m,nnnn,,,m;;m,,,nnnnnnnn,m;;m,nnnnnn,,nn,m;;m,,,nnn,mM",
";34444437734444566N3773N6654444444437734444445665443773N6654443;",
"Vy0444067760440qwwB6776Bwwq044444406776044440qwwq006776Bwwq040yV",
"2t6yyy6t99t6yy6t99CC99CC99t6yyyyyy6t99t6yyyy6t99t66t99CC99t6y6t2",
"r9777779  977779  77  99  9277777779SS97777779  9729  99  97779r",
".i------++------+irri+--+irri------iDDi-------+++irri+--++----i.",
"+fasssssssssssssapddpassapddpassssapddpassssssssapddpasssssssaf+",
"cxkjjjjjjjjjjjjjklzzlkjjklzzlkjjjjklzzlkjjjjjjjjklzzlkjjjjjjjkxc",
"Mm,nnnnnnn,,nnnn,m;;m,nn,m;;m,nnnn,m;;m,nn,,nnnn,m;;m,nnnnnn,,m1",
";344444445665444437734456897344444437734456654444377344444456382",
"Vy0444440qwwq0440677600qe9 26044440677600qwwq04406776044440qe77r",
"2t6yyyyy6t99t6yy6t99t66t9u 7t6yyyy6t99t66t99t6yy6t99t6yyyy6t9u  ",
"r727777729  977779  9729 uu 97777729  9729  977779  97227779 u@ ",
" @ri---irri+------+++irri+++-----irri++irri+------+++irri---++i.",
" uipasapddpassssssssapddpassssssap##paapddpassssssssapddpasssaf+",
"r9Zljjklzzlkjjjjjjjjklzzlkjjjjjjjlggljklzzlkjjjjjjjjklzzlkjjjkxc",
"28Abnn,m;;m,nnnnnnnn,m;;m,,,nnnnnbqqbn,m;;m,nnnnnnnn,m;;m,,,n,mM",
"Vy04444377344444444443773N6654444444444377344444444443773N66543;",
"Vy04440677604444444406776Bwwq0444444440677604444444406776Bwwq0yV",
"2t6yyy6t99t6yyyyyyyy6t99CC99t6yyyyyyyy6t99t6yyyyyyyy6t99CC99t6t2",
"r9777779  977722777779  99  9;2277777779  977722777779  99  927r",
".i------++---irri-----++--+ir@@ri-------++---irri-----++--++ir@ ",
"+fasssssssssapddpassssssssapi@uipassssssssssapddpasssssssssapi@ ",
"cxkjjjjjjjjjklzzlkjjjjjjjjkl- 9Zljjjjjjjjjjjklzzlkjjjjjjjjjkl-@ ",
"Mm,nnn,,nnnn,m;;m,nnnnnnnn,m;9tAbnnnnn,,nnnn,m;;m,nnnnnnnnn,m;@ ",
";3444566544443773444444444437760444445665444437734444444444432  ",
"Vy040qwwq0440677604444444406776044440qwwq04406776044444444406;  ",
"2t6y6t99t6yy6t99t6yyyyyyyy6t99t6yyyy6t99t6yy6t99t6yyyyyyyyy6t7  ",
"r97779  927779  977722777779  97777729  977779  9777227777779 @ ",
".i----+irri---++---irri-----++-----irri+------++---irri------+i.",
"+fasssapddpassssssapddpassssssssssapddpassssssssssapddpasssssaf+",
"cxkjjjklzzlkjjjjjjklzzlkjjjjjjjjjjklzzlkjjjjjjjjjjklzzlkjjjjjkxc",
"Mm,nnn,m;;m,nnnn,,,m;;m,,,nnnnnnnn,m;;m,nnnnnn,,nn,m;;m,nnnnn,mM",
";34444437734444566N3773N665444444443773444444566544377344444443;",
";344444y77y44446wwq6776qww644444444y77y4444446ww644y77y46654443;",
"Vy04440677604406776677667760444444067760444406776006776Bwwq040yV",
"28y333yt99ty33yt99tt99tt99ty333333yt99ty3333yt99tyyt99ttFFty3y82",
"r2V;;;V2rr2V;;V2rr;;rr;;rr2V;;;;;;V2rr2V;;;;V2rr2VV2rr;;rr2V;V2r"
};
