/* XPM */
static char *_cc83498aa594f6bdd6c3221e9e671faHZHRvVlazbDEEQLd[] = {
/* columns rows colors chars-per-pixel */
"64 64 51 1 ",
"  c #CF92B1",
". c #D093B2",
"X c #D498B6",
"o c #D598B7",
"O c #D396B5",
"+ c #EEB1CF",
"@ c #F2B5D4",
"# c #F2B5D3",
"$ c #EDB0CF",
"% c #D497B6",
"& c #D394B4",
"* c #EDA1C7",
"= c #F2A3CA",
"- c #F1A3CA",
"; c #D494B4",
": c #EC9DC4",
"> c #F09FC7",
", c #EF9FC7",
"< c #D393B3",
"1 c #ED9DC5",
"2 c #E89CC2",
"3 c #D293B3",
"4 c #EC9DC5",
"5 c #EC9EC5",
"6 c #F19FC7",
"7 c #ED9EC5",
"8 c #D695B6",
"9 c #D795B6",
"0 c #D393B4",
"q c #D092B1",
"w c #E99CC2",
"e c #CF93B1",
"r c #D397B5",
"t c #EFB4D2",
"y c #F3B9D6",
"u c #EFB4D1",
"i c #D798B8",
"p c #F3B6D4",
"a c #F8BBD9",
"s c #F7BBD9",
"d c #F2B6D4",
"f c #D497B5",
"g c #D598B6",
"h c #E99DC3",
"j c #F1A2C9",
"k c #F1A3C9",
"l c #EDA1C6",
"z c #F0A2C9",
"x c #CE92B1",
"c c #EC9EC4",
"v c white",
/* pixels */
" .XooooooooooooooX..XooooX..XooooooX..XooooooooooX..XoooooooooX.",
" O+@############@+OO+@##@+OO+@####@+OO+@########@+OO+@#######@$%",
" &*=------==----=*&&*=--=*&&*=----=*&&*=--==----=*&&*=------==*;",
" &:>>>>>>,::,>>>>:<<:>>,123<:>>>>>>:<<:>>,::,>>>>:<<:>>>>>>,4:2&",
" &56>>>>>7887>>>65<<56>793 &56>>>>65<<56>7887>>>65<<56>>>>>7903q",
" 3w5::::523325::5w33w5523  3w5::::5w33w5523325::5w33w5::::523   ",
"  3<<<<<&3  3<<<<3  3<&3    3<<<<<&3  3<&3  3<<<<3  3<&&<<<3    ",
"  er%%%r er%%%%%%%%%%r er%%%%%%%%r er%%r er%%%%%%%%%%r  r%%%%%r.",
"  rtyyytOOtyyyyyyyyyytOOtyyyyyyyytOOtyytOOtyyyyyyyyyytOOtyyyyyu%",
"  ipasadffdassssssssadffdassssssapiipaadffdassssssssadffdasssa@g",
" 3hjkk-l&&l-kkkkkkkk-l&&l---kkkkkz77zk-l&&l-kkkkkkkk-l&&l---k-l;",
" &:>>>>:<<:>>>>>>>>>>:<<:>::,>>>>>>>>>>:<<:>>>>>>>>>>:<<:>::,>:;",
" &56>>65<<56>>>>>>>>65<<57887>>>>>>>>>65<<56>>>>>>>>65<<578876:;",
" 3w5::5w33w5::::::::5w33ww3325::::::::5w33w5::::::::5w33ww33252&",
"  3<<<<3  3<<<&&<<<<<3  33  3&&&<<<<<<<3  3<<<&&<<<<<3  33  3&3q",
".r%%%%%%%%%%%r  r%%%%%%%%%%re  er%%%%%%%%%%%%r  r%%%%%%%%%%%re  ",
"%uyyyyyyyyyyytOOtyyyyyyyyyytr xrtyyyyyyyyyyyytOOtyyyyyyyyyyytr  ",
"g@asssssssssadffdassssssssad% 3ipassssssssssadffdasssssssssad%  ",
";l-kkk--kkkk-l&&l-kkkkkkkk-l&327zkkkkk--kkkk-l&&l-kkkkkkkkk-l&  ",
";:>>>,::,>>>>:<<:>>>>>>>>>>:<05>>>>>>,::,>>>>:<<:>>>>>>>>>>>:&  ",
";:6>>7887>>>65<<56>>>>>>>>65<<56>>>>>7887>>>65<<56>>>>>>>>>65&  ",
"&25:523325::5w33w5::::::::5w33w5::::523325::5w33w5:::::::::5w3  ",
"q3<<<3  3&<<<3  3<<<&&<<<<<3  3<<<<<&3  3<<<<3  3<<<&&<<<<<<3   ",
".r%%%%%re r%%%%%%%%r  r%%%%%%%%%%%%r er%%%%%%%%%%%%r  r%%%%%%%r.",
"%uyyyyytOOtyyyyyyyytOOtyyyyyyyyyyyytOOtyyyyyyyyyyyytOOtyyyyyyyu%",
"g@asssadffdassssssadffdassssssssssadffdassssssssssadffdasssssa@g",
";l-kkk-l&&l-kkkk---l&&l---kkkkkkkk-l&&l-kkkkkk--kk-l&&l---kkk-l;",
";:>>>>>:<<:>>>>,::>:<<:>::,>>>>>>>>:<<:>>>>>>,::,>>:<<:>::,>>>:;",
";:6>>>65<<56>>>78875<<57887>>>>>>>65<<56>>>>>7887>65<<57887>>6:;",
"&25:::5w33w5::5233ww33ww3325::::::5w33w5::::5233255w33ww3325:52&",
"q3<<<<<3  3<<<<3  33  33  3&<<<<<<<3  3<<<<<<3  3<&3  33  3<<<3q",
".r%%%%%%%%%%%%%%%reer%%%%re r%%%%%%r..r%%%%%%%%%%r er%%%%%%%%%r.",
"%uyyyyyyyyyyyyyyytOOtyyyytOOtyyyyyytOOtyyyyyyyyyytOOtyyyyyyyyyu%",
"g@asssssssssssssadffdassadffdassssadffdassssssssadffdasssssssa@g",
";l-kkkkkkk--kkkk-l&&l-kk-*&&l-kkkk-l&&l-kk--kkkk-l&&l-kkkkkk--l;",
";:>>>>>>>,::,>>>>:<<:>>,123<:>>>>>>:<<:>>,::,>>>>:<<:>>>>>>,4:2&",
";:6>>>>>>7887>>>65<<56>793 &56>>>>65<<56>7887>>>65<<56>>>>>7903q",
"&25:::::523325::5w33w5523  3w5::::5w33w5523325::5w33w5::::523   ",
"q3&<<<<<&3  3<<<<3  3<&3    3<<<<<&3  3<&3  3<<<<3  3<&&<<<3    ",
"  er%%%r er%%%%%%%%%%r er%%%%%%%%r er%%r er%%%%%%%%%%r  r%%%%%r.",
" xrtyyytOOtyyyyyyyyyytOOtyyyyyyyytOOtyytOOtyyyyyyyyyytOOtyyyyyu%",
"q3ipasadffdassssssssadffdassssssapiipaadffdassssssssadffdasssa@g",
"&27zkk-l&&l-kkkkkkkk-l&&l---kkkkkz77zk-l&&l-kkkkkkkk-l&&l---k-l;",
";:>>>>>:<<:>>>>>>>>>>:<<:>::,>>>>>>>>>>:<<:>>>>>>>>>>:<<:>::,>:;",
";:6>>>65<<56>>>>>>>>65<<57887>>>>>>>>>65<<56>>>>>>>>65<<578876:;",
"&25:::5w33w5::::::::5w33ww3325::::::::5w33w5::::::::5w33ww33252&",
"q3<<<<<3  3<<<&&<<<<<3  33  3&&&<<<<<<<3  3<<<&&<<<<<3  33  3&3q",
".r%%%%%%%%%%%r  r%%%%%%%%%%re  er%%%%%%%%%%%%r  r%%%%%%%%%%%re  ",
"%uyyyyyyyyyyytOOtyyyyyyyyyytr xrtyyyyyyyyyyyytOOtyyyyyyyyyyytr  ",
"g@asssssssssadffdassssssssad% 3ipassssssssssadffdasssssssssad%  ",
";l-kkk--kkkk-l&&l-kkkkkkkk-l&327zkkkkk--kkkk-l&&l-kkkkkkkkk-l&  ",
";:>>>,::,>>>>:<<:>>>>>>>>>>:<05>>>>>>,::,>>>>:<<:>>>>>>>>>>>:&  ",
";:6>>7887>>>65<<56>>>>>>>>65<<56>>>>>7887>>>65<<56>>>>>>>>>65&  ",
"&25:523325::5w33w5::::::::5w33w5::::523325::5w33w5:::::::::5w3  ",
"q3<<<3  3&<<<3  3<<<&&<<<<<3  3<<<<<&3  3<<<<3  3<<<&&<<<<<<3   ",
".r%%%%%re r%%%%%%%%r  r%%%%%%%%%%%%r er%%%%%%%%%%%%r  r%%%%%%%r.",
"%uyyyyytOOtyyyyyyyytOOtyyyyyyyyyyyytOOtyyyyyyyyyyyytOOtyyyyyyyu%",
"g@asssadffdassssssadffdassssssssssadffdassssssssssadffdasssssa@g",
";l-kkk-l&&l-kkkk---l&&l---kkkkkkkk-l&&l-kkkkkk--kk-l&&l-kkkkk-l;",
";:>>>>>:<<:>>>>,::>:<<:>::,>>>>>>>>:<<:>>>>>>,::,>>:<<:>>>>>>>:;",
";:>>>>>:<<:>>>>78875<<57887>>>>>>>>:<<:>>>>>>7887>>:<<:>55>>>>:;",
";:6>>>65<<56>>6c<<57<<75<<c6>>>>>>65<<56>>>>6c<<c665<<57887>>6:;",
"&2:::::2332::::233ww33ww332::::::::2332::::::2332::233ww332:::2&",
"q&;;;;;&qq&;;;;&qq&&qq&&qq&;;;;;;;;&qq&;;;;;;&qq&;;&qq&&qq&;;;&q"
};
