/* XPM */
static char *f29e213ecd41400fe64a0cd89d6165c6vGqmCwKjQ38RWmCV[] = {
/* columns rows colors chars-per-pixel */
"64 64 46 1 ",
"  c #422445",
". c #432446",
"X c #4A264A",
"o c #4B274A",
"O c #482649",
"+ c #703061",
"@ c #773265",
"# c #773264",
"$ c #703060",
"% c #492649",
"& c #482548",
"* c #6F285B",
"= c #75295E",
"- c #76295E",
"; c #492548",
": c #482448",
"> c #6D2759",
", c #73275C",
"< c #72275C",
"1 c #6E2759",
"2 c #6E275A",
"3 c #682657",
"4 c #472447",
"5 c #74275C",
"6 c #4D254A",
"7 c #432445",
"8 c #412445",
"9 c #472448",
"0 c #49264A",
"q c #723262",
"w c #793467",
"e c #4E264B",
"r c #783265",
"t c #7F346A",
"y c #7F3469",
"u c #4E264C",
"i c #692757",
"p c #74295D",
"a c #6E285B",
"s c #492448",
"d c #6F275A",
"f c #74275D",
"g c #4F264C",
"h c #672657",
"j c #462447",
"k c white",
/* pixels */
" .XooooooooooooooX..XooooX..XooooooX..XooooooooooX..XoooooooooX.",
" O+@############@+OO+@##@+OO+@####@+OO+@########@+OO+@#######@$%",
" &*==============*&&*===-*&&*======*&&*==========*&&*========-*;",
" :>,,,,,,<11<,,,,>::>,,<234:>,,,,,,>::>,,<11<,,,,>::>,,,,,,<1>3:",
" :>5,,,,526625,,5>::>55264 :>5,,,,5>::>5526625,,5>::>5,,,,526:47",
" 43>>>>>>3443>>>>3443>>348 43>>>>>>3443>>3443>>>>3443>>>>>>348  ",
" 74:4449:4  444444  4::4 88 444449:4  4::4  444444  4:::9444 8  ",
"  7O%%%O 7%0%%%%%%00%O 7%X00%%%%%O 7%0%O 7%0%%%%%%00%O  O%%%0X%.",
"  OqwwwqOOqwwwwwwwwwwqOOqwwwwwwwwqOOqwwqOOqwwwwwwwwwwqOOqwwwwwq0",
"  ertytr%%rtyyyyyyyytr%%rtyyyyyytruurttr%%rtyyyyyyyytr%%rtyyyt@X",
" 4ip===a&&a==========a&&a========p22p==a&&a==========a&&a=====a;",
" :>,,,,>::>,,,,,,,,,,>::>,11<,,,,,,,,,,>::>,,,,,,,,,,>::>,11<,>s",
" :>5,,5>::>5,,,,,,,,5>::2d6625,,,,,,,,5>::>5,,,,,,,,5>::2d662f>s",
" 43>>>>3443>>>>>>>>>>34433443>>>>>>>>>>3443>>>>>>>>>>3443344323:",
"  444444  4449::944444  44  4:::94444444  4449::944444  44  4:47",
".O%%%%%%00%%%O  O%%%%%00%%0%7  7O%%%%%%%00%%%O  O%%%%%00%%00O7  ",
"0qwwwwwwwwwwwqOOqwwwwwwwwwwq% 8OqwwwwwwwwwwwwqOOqwwwwwwwwwwwq%  ",
"X@tyyyyyyyyytr%%rtyyyyyyyytr% 4grtyyyyyyyyyytr%%rtyyyyyyyyytr%  ",
";a===========a&&a==========a&432p============a&&a===========a&  ",
"s>,,,<11<,,,,>::>,,,,,,,,,,>::>5,,,,,<11<,,,,>::>,,,,,,,,,,,>:  ",
"s>5,526625,,5>::>5,,,,,,,,5>::>5,,,,526625,,5>::>5,,,,,,,,,5>:  ",
":3>>>3443>>>>3443>>>>>>>>>>3443>>>>>>3443>>>>3443>>>>>>>>>>>34  ",
"744444  4:9444  4449::944444  444449:4  444444  4449::9444444   ",
".O%%%%0%7 O%%%00%%%O  O%%%%%00%%%%%O 7%0%%%%%%00%%%O  O%%%%%%0%.",
"0qwwwwwqOOqwwwwwwwwqOOqwwwwwwwwwwwwqOOqwwwwwwwwwwwwqOOqwwwwwwwq0",
"X@tyyytr%%rtyyyyyytr%%rtyyyyyyyyyytr%%rtyyyyyyyyyytr%%rtyyyyyt@X",
";a=====a&&a========a&&a============a&&a============a&&a=======a;",
"s>,,,,,>::>,,,,<11,>::>,11<,,,,,,,,>::>,,,,,,<11<,,>::>,11<,,,>s",
"s>5,,,5>::>5,,5266d2::2d6625,,,,,,5>::>5,,,,5266255>::2d6625,5>s",
":3>>>>>3443>>>>344334433443>>>>>>>>3443>>>>>>3443>>34433443>>>3:",
"74444444  444444  44  44  4:944444447744444444  4::4  44  444447",
".O%%%%%%00%%%%%%0%77%0%%0%7 O%%%%%%O77O%%%%%%%00%O 7%0%%00%%%%O.",
"0qwwwwwwwwwwwwwwwqOOqwwwwqOOqwwwwwwqOOqwwwwwwwwwwqOOqwwwwwwwwwq0",
"X@tyyyyyyyyyyyyytr%%rtyytr%%rtyyyytr%%rtyyyyyyyytr%%rtyyyyyyyt@X",
";a===============a&&a====*&&a======a&&a==========a&&a=========a;",
"s>,,,,,,,<11<,,,,>::>,,<234:>,,,,,,>::>,,<11<,,,,>::>,,,,,,<1>3:",
"s>5,,,,,526625,,5>::>55264 :>5,,,,5>::>5526625,,5>::>5,,,,526:47",
":3>>>>>>>3443>>>>3443>>348 43>>>>>>3443>>3443>>>>3443>>>>>>348  ",
"74:94449:4  444444  4::4 88 444449:4  4::4  444444  4:::9444 8  ",
"  7O%%%O 7%0%%%%%%00%O 7%X00%%%%%O 7%0%O 7%0%%%%%%00%O  O%%%0X%.",
" 8OqwwwqOOqwwwwwwwwwwqOOqwwwwwwwwqOOqwwqOOqwwwwwwwwwwqOOqwwwwwq0",
"74grtytr%%rtyyyyyyyytr%%rtyyyyyytruurttr%%rtyyyyyyyytr%%rtyyyt@X",
":32p===a&&a==========a&&a========p22p==a&&a==========a&&a=====a;",
"s>5,,,,>::>,,,,,,,,,,>::>,11<,,,,,,,,,,>::>,,,,,,,,,,>::>,11<,>s",
"s>5,,,5>::>5,,,,,,,,5>::2d6625,,,,,,,,5>::>5,,,,,,,,5>::2d662f>s",
":3>>>>>3443>>>>>>>>>>34433443>>>>>>>>>>3443>>>>>>>>>>3443344323:",
"74444444  4449::944444  44  4:::94444444  4449::944444  44  4:47",
".O%%%%%%00%%%O  O%%%%%00%%0%7  7O%%%%%%%00%%%O  O%%%%%00%%00O7  ",
"0qwwwwwwwwwwwqOOqwwwwwwwwwwq% 8OqwwwwwwwwwwwwqOOqwwwwwwwwwwwq%  ",
"X@tyyyyyyyyytr%%rtyyyyyyyytr% 4grtyyyyyyyyyytr%%rtyyyyyyyyytr%  ",
";a===========a&&a==========a&432p============a&&a===========a&  ",
"s>,,,<11<,,,,>::>,,,,,,,,,,>::>5,,,,,<11<,,,,>::>,,,,,,,,,,,>:  ",
"s>5,526625,,5>::>5,,,,,,,,5>::>5,,,,526625,,5>::>5,,,,,,,,,5>:  ",
":3>>>3443>>>>3443>>>>>>>>>>3443>>>>>>3443>>>>3443>>>>>>>>>>>34  ",
"744444  4:9444  4449::944444  444449:4  444444  4449::9444444   ",
".O%%%%0%7 O%%%00%%%O  O%%%%%00%%%%%O 7%0%%%%%%00%%%O  O%%%%%%0%.",
"0qwwwwwqOOqwwwwwwwwqOOqwwwwwwwwwwwwqOOqwwwwwwwwwwwwqOOqwwwwwwwq0",
"X@tyyytr%%rtyyyyyytr%%rtyyyyyyyyyytr%%rtyyyyyyyyyytr%%rtyyyyyt@X",
";a=====a&&a========a&&a============a&&a============a&&a=======a;",
"s>,,,,,>::>,,,,<11,>::>,11<,,,,,,,,>::>,,,,,,<11<,,>::>,,,,,,,>s",
"s>,,,,,>::>,,,,2662>::>2662,,,,,,,,>::>,,,,,,2662,,>::>,22<,,,>s",
"s>5,,,5>::>5,,5>4422::2244>5,,,,,,5>::>5,,,,5>44>55>::2d6625,5>s",
":h>>>>>3443>>>>344334433443>>>>>>>>3443>>>>>>3443>>34433jj3>>>h:",
"7:sssss:77:ssss:77::77::77:ssssssss:77:ssssss:77:ss:77::77:sss:7"
};
